name C:\Users\antoi\Documents\MyRepositories\upper-imu-dc\Results\main_tracking\Case_69\FLX01_linearAccelerations_bodyFrame.mot
datacolumns 4
datarows 70
range 5.01000000 5.70000000
endheader 
time	radius_imu_x	radius_imu_y	radius_imu_z	
          5.01000000	         -1.89703483	          3.77085483	          9.28841835	
          5.02000000	         -1.79518944	          3.91355318	          9.52438160	
          5.03000000	         -1.71756946	          4.04441222	          9.70812601	
          5.04000000	         -1.65966147	          4.16552926	          9.84276133	
          5.05000000	         -1.61719476	          4.27918573	          9.93153584	
          5.06000000	         -1.58639514	          4.38762264	          9.97789109	
          5.07000000	         -1.56436717	          4.49281306	          9.98546464	
          5.08000000	         -1.54940673	          4.59625058	          9.95803080	
          5.09000000	         -1.54099149	          4.69891157	          9.89943299	
          5.10000000	         -1.53942268	          4.80126965	          9.81356601	
          5.11000000	         -1.54510879	          4.90347772	          9.70444914	
          5.12000000	         -1.55796905	          5.00558092	          9.57629571	
          5.13000000	         -1.57703083	          5.10762950	          9.43366364	
          5.14000000	         -1.60089276	          5.20964593	          9.28098091	
          5.15000000	         -1.62763622	          5.31160789	          9.12327850	
          5.16000000	         -1.65710915	          5.41320533	          8.96597276	
          5.17000000	         -1.68996163	          5.51479301	          8.81535750	
          5.18000000	         -1.72280225	          5.61786080	          8.67581039	
          5.19000000	         -1.75541720	          5.72073182	          8.54869671	
          5.20000000	         -1.78847362	          5.82030381	          8.43285978	
          5.21000000	         -1.82217752	          5.91595483	          8.32758516	
          5.22000000	         -1.85326836	          6.00991452	          8.23442674	
          5.23000000	         -1.88242923	          6.10302416	          8.15601077	
          5.24000000	         -1.91020388	          6.19540816	          8.09126342	
          5.25000000	         -1.93793126	          6.28769694	          8.03799359	
          5.26000000	         -1.96603063	          6.38014047	          7.99303275	
          5.27000000	         -1.99586412	          6.47309890	          7.95304295	
          5.28000000	         -2.02880552	          6.56662656	          7.91453672	
          5.29000000	         -2.06608710	          6.66058791	          7.87416051	
          5.30000000	         -2.10803198	          6.75488406	          7.82925236	
          5.31000000	         -2.15445797	          6.84923494	          7.77794631	
          5.32000000	         -2.20456986	          6.94341795	          7.71918503	
          5.33000000	         -2.25695777	          7.03714960	          7.65290430	
          5.34000000	         -2.30955001	          7.13004969	          7.58005040	
          5.35000000	         -2.36177165	          7.22180180	          7.50132208	
          5.36000000	         -2.41397279	          7.31195651	          7.41622568	
          5.37000000	         -2.46279707	          7.40007536	          7.32730817	
          5.38000000	         -2.50498487	          7.48550732	          7.23571077	
          5.39000000	         -2.54713841	          7.56864526	          7.13868780	
          5.40000000	         -2.58650598	          7.64933883	          7.03644049	
          5.41000000	         -2.61628551	          7.72743151	          6.93127696	
          5.42000000	         -2.64144665	          7.80356409	          6.81929617	
          5.43000000	         -2.65683252	          7.87810241	          6.70187221	
          5.44000000	         -2.66052994	          7.95154911	          6.57924594	
          5.45000000	         -2.65027059	          8.02442965	          6.45183827	
          5.46000000	         -2.63091497	          8.09777413	          6.31696132	
          5.47000000	         -2.59705222	          8.17165418	          6.17810204	
          5.48000000	         -2.55022312	          8.24642918	          6.03511822	
          5.49000000	         -2.49152214	          8.32233014	          5.88798246	
          5.50000000	         -2.42131709	          8.39941316	          5.73802696	
          5.51000000	         -2.34021138	          8.47779179	          5.58647928	
          5.52000000	         -2.24846410	          8.55755166	          5.43513645	
          5.53000000	         -2.14640271	          8.63869128	          5.28597418	
          5.54000000	         -2.03428417	          8.72117539	          5.14106622	
          5.55000000	         -1.91257658	          8.80479237	          5.00238898	
          5.56000000	         -1.78234821	          8.88918009	          4.87155971	
          5.57000000	         -1.64518763	          8.97376001	          4.74993023	
          5.58000000	         -1.50343365	          9.05780561	          4.63846572	
          5.59000000	         -1.36015241	          9.14047123	          4.53780044	
          5.60000000	         -1.21889990	          9.22086141	          4.44834854	
          5.61000000	         -1.08343970	          9.29811371	          4.37038242	
          5.62000000	         -0.95745131	          9.37148536	          4.30399038	
          5.63000000	         -0.84430974	          9.44041688	          4.24899477	
          5.64000000	         -0.74687280	          9.50454976	          4.20477506	
          5.65000000	         -0.66714423	          9.56367590	          4.17007956	
          5.66000000	         -0.60603948	          9.61772589	          4.14309332	
          5.67000000	         -0.56311075	          9.66674948	          4.12156049	
          5.68000000	         -0.53651644	          9.71089395	          4.10318666	
          5.69000000	         -0.52332129	          9.75040828	          4.08590682	
          5.70000000	         -0.52002062	          9.78560964	          4.06817549	
